{
  "accessors": [
    {
      "bufferView": 2,
      "componentType": 5126,
      "count": 2290,
      "max": [
        26.556415557861328,
        14.442901611328125,
        10.884598731994629
      ],
      "min": [
        -26.556415557861328,
        -46.9655876159668,
        -26.287078857421875
      ],
      "type": "VEC3"
    },
    {
      "bufferView": 2,
      "byteOffset": 27480,
      "componentType": 5126,
      "count": 2290,
      "max": [
        0.992205023765564,
        0.998977780342102,
        0.9947749972343445
      ],
      "min": [
        -0.992205023765564,
        -0.9996707439422607,
        -0.9993136525154114
      ],
      "type": "VEC3"
    },
    {
      "bufferView": 1,
      "componentType": 5126,
      "count": 2290,
      "max": [
        0.8750001192092896,
        1.0000001192092896
      ],
      "min": [
        0.125,
        0.0
      ],
      "type": "VEC2"
    },
    {
      "bufferView": 0,
      "componentType": 5125,
      "count": 3450,
      "type": "SCALAR"
    },
    {
      "bufferView": 2,
      "byteOffset": 54960,
      "componentType": 5126,
      "count": 300,
      "max": [
        27.750932693481445,
        12.263348579406738,
        5.123414993286133
      ],
      "min": [
        -27.750932693481445,
        -45.990028381347656,
        -3.567758560180664
      ],
      "type": "VEC3"
    },
    {
      "bufferView": 2,
      "byteOffset": 58560,
      "componentType": 5126,
      "count": 300,
      "max": [
        0.8774756789207458,
        0.980696439743042,
        0.9128552079200745
      ],
      "min": [
        -0.8774756789207458,
        -0.9806957840919495,
        -0.9145597815513611
      ],
      "type": "VEC3"
    },
    {
      "bufferView": 1,
      "byteOffset": 18320,
      "componentType": 5126,
      "count": 300,
      "max": [
        0.6250001192092896,
        1.0000001192092896
      ],
      "min": [
        0.125,
        0.0
      ],
      "type": "VEC2"
    },
    {
      "bufferView": 0,
      "byteOffset": 13800,
      "componentType": 5125,
      "count": 468,
      "type": "SCALAR"
    },
    {
      "bufferView": 2,
      "byteOffset": 62160,
      "componentType": 5126,
      "count": 3968,
      "max": [
        3.716306209564209,
        11.660906791687012,
        3.1670351028442383
      ],
      "min": [
        -3.716306209564209,
        9.649617195129395,
        0.7176122665405273
      ],
      "type": "VEC3"
    },
    {
      "bufferView": 2,
      "byteOffset": 109776,
      "componentType": 5126,
      "count": 3968,
      "max": [
        0.9946574568748474,
        0.9973165988922119,
        0.9954798221588135
      ],
      "min": [
        -0.9946574568748474,
        -0.9973167777061462,
        -0.9954795837402344
      ],
      "type": "VEC3"
    },
    {
      "bufferView": 1,
      "byteOffset": 20720,
      "componentType": 5126,
      "count": 3968,
      "max": [
        1.0000001192092896,
        1.0
      ],
      "min": [
        0.0,
        0.0
      ],
      "type": "VEC2"
    },
    {
      "bufferView": 0,
      "byteOffset": 15672,
      "componentType": 5125,
      "count": 5760,
      "type": "SCALAR"
    },
    {
      "bufferView": 2,
      "byteOffset": 157392,
      "componentType": 5126,
      "count": 56,
      "max": [
        0.8036801218986511,
        9.573112487792969,
        10.988107681274414
      ],
      "min": [
        -0.8036801218986511,
        8.546833992004395,
        10.569169998168945
      ],
      "type": "VEC3"
    },
    {
      "bufferView": 2,
      "byteOffset": 158064,
      "componentType": 5126,
      "count": 56,
      "max": [
        0.9533121585845947,
        0.9908466339111328,
        0.979040265083313
      ],
      "min": [
        -0.9533121585845947,
        -0.9446403384208679,
        -0.32502737641334534
      ],
      "type": "VEC3"
    },
    {
      "bufferView": 1,
      "byteOffset": 52464,
      "componentType": 5126,
      "count": 56,
      "max": [
        0.8685240149497986,
        0.7500000596046448
      ],
      "min": [
        0.8189545273780823,
        0.75
      ],
      "type": "VEC2"
    },
    {
      "bufferView": 0,
      "byteOffset": 38712,
      "componentType": 5125,
      "count": 84,
      "type": "SCALAR"
    },
    {
      "bufferView": 2,
      "byteOffset": 158736,
      "componentType": 5126,
      "count": 810,
      "max": [
        26.532020568847656,
        7.150915145874023,
        8.59689998626709
      ],
      "min": [
        -26.532020568847656,
        -46.85567092895508,
        -24.841434478759766
      ],
      "type": "VEC3"
    },
    {
      "bufferView": 2,
      "byteOffset": 168456,
      "componentType": 5126,
      "count": 810,
      "max": [
        0.9926899671554565,
        0.9854479432106018,
        0.9961291551589966
      ],
      "min": [
        -0.9926899671554565,
        -0.9809742569923401,
        -0.7360248565673828
      ],
      "type": "VEC3"
    },
    {
      "bufferView": 1,
      "byteOffset": 52912,
      "componentType": 5126,
      "count": 810,
      "max": [
        0.8752549886703491,
        1.0000001192092896
      ],
      "min": [
        0.125,
        0.0
      ],
      "type": "VEC2"
    },
    {
      "bufferView": 0,
      "byteOffset": 39048,
      "componentType": 5125,
      "count": 1218,
      "type": "SCALAR"
    }
  ],
  "asset": {
    "extras": {
      "author": "Dylan Spin (https://sketchfab.com/DylanSpin)",
      "license": "CC-BY-4.0 (http://creativecommons.org/licenses/by/4.0/)",
      "source": "https://sketchfab.com/3d-models/meerkat-low-polly-t-pose-0d4d21e88590460080f7f9aad051c10d",
      "title": "Meerkat Low Polly T-Pose"
    },
    "generator": "Sketchfab-13.17.0",
    "version": "2.0"
  },
  "bufferViews": [
    {
      "buffer": 0,
      "byteLength": 43920,
      "name": "floatBufferViews",
      "target": 34963
    },
    {
      "buffer": 0,
      "byteLength": 59392,
      "byteOffset": 43920,
      "byteStride": 8,
      "name": "floatBufferViews",
      "target": 34962
    },
    {
      "buffer": 0,
      "byteLength": 178176,
      "byteOffset": 103312,
      "byteStride": 12,
      "name": "floatBufferViews",
      "target": 34962
    }
  ],
  "buffers": [
    {
      "byteLength": 281488,
      "uri": "scene.bin"
    }
  ],
  "materials": [
    {
      "doubleSided": true,
      "name": "BodyColor",
      "pbrMetallicRoughness": {
        "baseColorFactor": [
          0.3967552307,
          0.270497791,
          0.1247718176,
          1.0
        ],
        "metallicFactor": 0.0,
        "roughnessFactor": 0.5
      }
    },
    {
      "doubleSided": true,
      "name": "brown",
      "pbrMetallicRoughness": {
        "baseColorFactor": [
          0.0927185,
          0.0554065,
          0.0312873,
          1.0
        ],
        "metallicFactor": 0.0,
        "roughnessFactor": 0.5
      }
    },
    {
      "doubleSided": true,
      "name": "material",
      "pbrMetallicRoughness": {
        "baseColorFactor": [
          0.0416716935,
          0.0416716935,
          0.0416716935,
          1.0
        ],
        "metallicFactor": 0.0,
        "roughnessFactor": 0.5
      }
    },
    {
      "doubleSided": true,
      "name": "Nose",
      "pbrMetallicRoughness": {
        "baseColorFactor": [
          0.224159,
          0.0856062,
          0.0541462,
          1.0
        ],
        "metallicFactor": 0.0,
        "roughnessFactor": 0.5
      }
    },
    {
      "doubleSided": true,
      "name": "BodyWhite",
      "pbrMetallicRoughness": {
        "baseColorFactor": [
          0.485408844,
          0.4740717227,
          0.3659408022,
          1.0
        ],
        "metallicFactor": 0.0,
        "roughnessFactor": 0.5
      }
    }
  ],
  "meshes": [
    {
      "name": "Object_0",
      "primitives": [
        {
          "attributes": {
            "NORMAL": 1,
            "POSITION": 0,
            "TEXCOORD_0": 2
          },
          "indices": 3,
          "material": 0,
          "mode": 4
        }
      ]
    },
    {
      "name": "Object_1",
      "primitives": [
        {
          "attributes": {
            "NORMAL": 5,
            "POSITION": 4,
            "TEXCOORD_0": 6
          },
          "indices": 7,
          "material": 1,
          "mode": 4
        }
      ]
    },
    {
      "name": "Object_2",
      "primitives": [
        {
          "attributes": {
            "NORMAL": 9,
            "POSITION": 8,
            "TEXCOORD_0": 10
          },
          "indices": 11,
          "material": 2,
          "mode": 4
        }
      ]
    },
    {
      "name": "Object_3",
      "primitives": [
        {
          "attributes": {
            "NORMAL": 13,
            "POSITION": 12,
            "TEXCOORD_0": 14
          },
          "indices": 15,
          "material": 3,
          "mode": 4
        }
      ]
    },
    {
      "name": "Object_4",
      "primitives": [
        {
          "attributes": {
            "NORMAL": 17,
            "POSITION": 16,
            "TEXCOORD_0": 18
          },
          "indices": 19,
          "material": 4,
          "mode": 4
        }
      ]
    }
  ],
  "nodes": [
    {
      "children": [
        1
      ],
      "matrix": [
        1.0,
        0.0,
        0.0,
        0.0,
        0.0,
        2.220446049250313e-16,
        -1.0,
        0.0,
        0.0,
        1.0,
        2.220446049250313e-16,
        0.0,
        0.0,
        0.0,
        0.0,
        1.0
      ],
      "name": "Sketchfab_model"
    },
    {
      "children": [
        2
      ],
      "name": "root"
    },
    {
      "children": [
        3
      ],
      "matrix": [
        1.0,
        0.0,
        0.0,
        0.0,
        0.0,
        2.220446049250313e-16,
        1.0,
        0.0,
        0.0,
        -1.0,
        2.220446049250313e-16,
        0.0,
        0.0,
        0.0,
        0.0,
        1.0
      ],
      "name": "GLTF_SceneRootNode"
    },
    {
      "children": [
        4,
        5,
        6,
        7,
        8
      ],
      "matrix": [
        1.0,
        0.0,
        0.0,
        0.0,
        0.0,
        1.0,
        0.0,
        0.0,
        0.0,
        0.0,
        1.0,
        0.0,
        0.0,
        46.76149368286133,
        2.198822021484375,
        1.0
      ],
      "name": "Cube.001_37"
    },
    {
      "mesh": 0,
      "name": "Object_4"
    },
    {
      "mesh": 1,
      "name": "Object_5"
    },
    {
      "mesh": 2,
      "name": "Object_6"
    },
    {
      "mesh": 3,
      "name": "Object_7"
    },
    {
      "mesh": 4,
      "name": "Object_8"
    }
  ],
  "scene": 0,
  "scenes": [
    {
      "name": "Sketchfab_Scene",
      "nodes": [
        0
      ]
    }
  ]
}
