<svg xmlns="http://www.w3.org/2000/svg" viewBox="0 0 210.11 283.5"><defs><style>.cls-1{fill:#f280a1;}</style></defs><g id="Layer_2" data-name="Layer 2"><g id="Layer_1-2" data-name="Layer 1"><path class="cls-1" d="M153.92,45.8c-.13-3.46-.26-6.85-.38-10.13h22.67a62.39,62.39,0,0,1,7.43,10Zm39.48-8.46q-20.07-35.12-77-35.11A151.53,151.53,0,0,0,89.63,4.37V0H85.18L2.5,37.9V58.06a19.47,19.47,0,0,1,14.26,5.86,19.22,19.22,0,0,1,5.9,14.2v164.6l.09-1.86a19.55,19.55,0,0,1-5.9,14.31A19.41,19.41,0,0,1,2.5,261.11H0V283.5H116.39q56.93,0,77-35.2Q210.11,219,210.11,142.86T193.4,37.34Zm-39,31.87v-10h35.49q1.94,6.6,2.78,10Zm0,23.4v-10l41.7-.1q.57,3.92,1.21,10.13Zm0,23.5V106h44q.18,4,.37,10.12Zm.19,23.41-.19-10H199v10ZM199,162.93H154.66v-10H199ZM40.31,38,29.07,37.9l17-7.89A64.06,64.06,0,0,0,40.31,38ZM198,186.43H154.38V176.3H198.6C198.4,180.83,198.22,184.2,198,186.43Zm-58.29,82.12a13.19,13.19,0,0,1-9.71,4.08h-9.47v-11.8H109.7a19.28,19.28,0,0,1-14.22-5.89,19.51,19.51,0,0,1-5.85-14.26V24.52q2.24-11.14,13.19-11.15H130a13.28,13.28,0,0,1,9.61,4,12.72,12.72,0,0,1,4,9.42v232A13.08,13.08,0,0,1,139.75,268.55ZM30.93,60a32.43,32.43,0,0,0-8.55-8.64h11.8Q31.57,57.78,30.93,60ZM194.79,209.84H154.38v-10H197C196.15,204.27,195.4,207.61,194.79,209.84Zm-5.85,23.41H154.38v-10h38.17A100.71,100.71,0,0,1,188.94,233.25Zm-16.72,23.41H152.71c.25-2.66.49-6,.74-10h28A59.52,59.52,0,0,1,172.22,256.66ZM34.27,251.17A34.37,34.37,0,0,0,36.69,242a98.27,98.27,0,0,0,4.64,9.38ZM12.82,272.35l.18-1.58a35.6,35.6,0,0,0,10.22-5.66H52.48a68.51,68.51,0,0,0,9.84,7.24Z"/></g></g></svg>